<svg width="264" height="264" viewBox="0 0 264 264" fill="none" xmlns="http://www.w3.org/2000/svg">
<g clip-path="url(#clip0_1_2)" filter="url(#filter0_d_1_2)">
<path d="M-59.1968 214.64L332.103 123.764L331.747 247.701L316.971 279.973L-55.9681 286.025L-63.8922 250.719L-59.1968 214.64Z" fill="url(#paint0_linear_1_2)"/>
<path d="M291.835 98.9898L-15.8135 169.983L-15.8132 -18.763C105.972 -42.3711 280.315 -29.6423 286.075 -14.9232C291.835 -0.204073 291.835 98.9898 291.835 98.9898Z" fill="url(#paint1_linear_1_2)"/>
<path d="M133 201.813L108 222V213.925L128 197.776L109.111 182.972V174.897L133 194.187L158 174V181.626L138 197.776L158 213.925V222L133 201.813Z" fill="#FE500E" stroke="#352236" stroke-width="3"/>
<path d="M122 109L122 137" stroke="#352236" stroke-width="3" stroke-linecap="round"/>
<path d="M140 73L140 135" stroke="#352236" stroke-width="3" stroke-linecap="round"/>
<path d="M80 151.5C109.022 125.628 145.599 73.5834 157 36.7879V18C153.659 39.0424 109.5 122 61 158L80 151.5Z" fill="#42F1F0"/>
<path d="M80 151.5C109.022 125.628 145.599 73.5834 157 36.7879V18C153.659 39.0424 109.5 122 61 158L80 151.5Z" fill="black" fill-opacity="0.2"/>
<path d="M80 151.5C109.022 125.628 145.599 73.5834 157 36.7879V18C153.659 39.0424 109.5 122 61 158L80 151.5Z" stroke="#352236" stroke-width="4"/>
<rect width="162.369" height="5.3643" transform="matrix(-0.000851069 -1 1 -0.000444542 169.732 166.708)" fill="#FE500E"/>
<rect width="56.6771" height="6.95744" transform="matrix(-0.000851069 -1 1 -0.000444542 161.048 225.68)" fill="#FFBF03"/>
<rect width="51.9998" height="6.01015" transform="matrix(-0.000851069 -1 1 -0.000444542 164.99 224.003)" fill="#FE500E"/>
<rect width="153.131" height="6.31573" transform="matrix(-0.000851069 -1 1 -0.000444542 160.603 157.47)" fill="white"/>
<rect width="160.928" height="3.34559" transform="matrix(-0.000851069 -1 1 -0.000444542 166.48 165.266)" fill="#FFBF03"/>
<path d="M169.139 227C169.139 227 169.139 211.926 169.139 191.213C169.139 170.5 149 166.606 149 166.606L174 163L174 227L169.139 227Z" fill="#FB0D2C"/>
<path fill-rule="evenodd" clip-rule="evenodd" d="M174 224.335V14.3084C174 10.9217 171.314 8.17621 168 8.17621C164.686 8.17621 162 10.9217 162 14.3084V224.335C167 224.335 164.686 224.335 168 224.335C171.314 224.335 171.5 224.335 174 224.335ZM168 0C160.268 0 154 6.40607 154 14.3084V232C163 232 160.268 232 168 232C175.732 232 176 232 182 232V14.3084C182 6.40608 175.732 0 168 0Z" fill="#352236"/>
<rect x="-40.8785" y="175.095" width="383" height="9" transform="rotate(-13.1442 -40.8785 175.095)" fill="#352236"/>
<rect x="-46" y="206.095" width="383" height="9" transform="rotate(-13.1442 -46 206.095)" fill="#352236"/>
<rect x="-44" y="184.857" width="383" height="7.89541" transform="rotate(-13.1442 -44 184.857)" fill="white"/>
<rect x="-46" y="193.095" width="383" height="7.77717" transform="rotate(-13.1442 -46 193.095)" fill="#FE500E"/>
<rect x="-46.9012" y="200.801" width="383" height="5.644" transform="rotate(-13.1442 -46.9012 200.801)" fill="#FB0D2C"/>
<rect width="226.68" height="5.3643" transform="matrix(-0.000854753 -1 1 -0.000442626 98.7873 231)" fill="#FE500E"/>
<rect width="226.68" height="5.38479" transform="matrix(-0.000854753 -1 1 -0.000442626 90.4536 231)" fill="white"/>
<rect width="226.68" height="3.3649" transform="matrix(-0.000854753 -1 1 -0.000442626 95.5372 230.999)" fill="#FFBF03"/>
<path fill-rule="evenodd" clip-rule="evenodd" d="M103 224.894V14.2467C103 10.8746 100.314 8.14097 97 8.14097C93.6863 8.14097 91 10.8746 91 14.2467V224.894C97 224.894 93.6863 224.894 97 224.894C100.314 224.894 97 224.894 103 224.894ZM97 0C89.268 0 83 6.37846 83 14.2467V231C97 231 89.268 231 97 231C104.732 231 101 231 111 231V14.2467C111 6.37846 104.732 0 97 0Z" fill="#352236"/>
<rect x="111" y="90" width="43" height="5" fill="#352236"/>
<rect x="111" y="95" width="43" height="5" fill="white"/>
<rect x="111" y="97" width="43" height="7" fill="#FFBF03"/>
<rect x="111" y="104" width="43" height="5" fill="#352236"/>
<rect x="111" y="67" width="43" height="5" fill="#352236"/>
<rect x="111" y="100" width="43" height="5" fill="#FE500E"/>
<rect x="111" y="52" width="43" height="5" fill="#352236"/>
<rect x="111" y="57" width="43" height="5" fill="white"/>
<rect x="111" y="59" width="43" height="7" fill="#FFBF03"/>
<rect x="111" y="63" width="43" height="5" fill="#FE500E"/>
<rect x="111" y="63" width="43" height="5" fill="#FE500E"/>
<rect x="111" y="23" width="43" height="5" fill="#FE500E"/>
<rect x="111" y="28" width="43" height="6.84211" fill="#FB0D2C"/>
<rect x="111" y="20" width="43" height="3" fill="white"/>
<rect x="111" y="14" width="43" height="6.84211" fill="#352236"/>
<rect x="111" y="33.1579" width="43" height="6.84211" fill="#352236"/>
<path d="M192 228L68 228" stroke="#352236" stroke-width="9" stroke-linecap="round"/>
<path d="M32 125L32.5 193" stroke="#352236" stroke-width="3" stroke-linecap="round"/>
<path d="M15 145L15 195" stroke="#352236" stroke-width="3" stroke-linecap="round"/>
<path d="M252 88L252 141" stroke="#352236" stroke-width="3" stroke-linecap="round"/>
<path d="M50 104L50 188" stroke="#352236" stroke-width="3" stroke-linecap="round"/>
<path d="M68 77L68 184" stroke="#352236" stroke-width="3" stroke-linecap="round"/>
<path d="M126 142L126 172" stroke="#352236" stroke-width="3" stroke-linecap="round"/>
<path d="M144 138L144 167" stroke="#352236" stroke-width="3" stroke-linecap="round"/>
<path d="M162 133L162 163" stroke="#352236" stroke-width="3" stroke-linecap="round"/>
<path d="M180 128L180 158" stroke="#352236" stroke-width="3" stroke-linecap="round"/>
<path d="M198 50L198 155" stroke="#352236" stroke-width="3" stroke-linecap="round"/>
<path d="M216 63L216 150" stroke="#352236" stroke-width="3" stroke-linecap="round"/>
<path d="M234 77L234 146" stroke="#352236" stroke-width="3" stroke-linecap="round"/>
<path d="M0 157C34.7445 128.833 71.3504 82.5142 85 42.4545V22C81 44.9091 36.25 118.136 0 144.727V157Z" fill="#1EFFFE" stroke="#352236" stroke-width="4"/>
<path d="M227.066 114C190.114 105.064 122.531 61.3242 106 27.675V11C120.1 53.7991 197.407 104.594 247 110.708L227.066 114Z" fill="#1EFFFE" stroke="#352236" stroke-width="3"/>
<path d="M312.086 113C271.466 104.237 197.172 61.347 179 28.3512V12C194.5 53.968 279.483 103.776 334 109.772L312.086 113Z" fill="#42F1F0"/>
<path d="M312.086 113C271.466 104.237 197.172 61.347 179 28.3512V12C194.5 53.968 279.483 103.776 334 109.772L312.086 113Z" fill="black" fill-opacity="0.2"/>
<path d="M312.086 113C271.466 104.237 197.172 61.347 179 28.3512V12C194.5 53.968 279.483 103.776 334 109.772L312.086 113Z" stroke="#352236" stroke-width="3"/>
</g>
<defs>
<filter id="filter0_d_1_2" x="0" y="0" width="264" height="264" filterUnits="userSpaceOnUse" color-interpolation-filters="sRGB">
<feFlood flood-opacity="0" result="BackgroundImageFix"/>
<feColorMatrix in="SourceAlpha" type="matrix" values="0 0 0 0 0 0 0 0 0 0 0 0 0 0 0 0 0 0 127 0" result="hardAlpha"/>
<feOffset dy="4"/>
<feGaussianBlur stdDeviation="2"/>
<feComposite in2="hardAlpha" operator="out"/>
<feColorMatrix type="matrix" values="0 0 0 0 0 0 0 0 0 0 0 0 0 0 0 0 0 0 0.25 0"/>
<feBlend mode="normal" in2="BackgroundImageFix" result="effect1_dropShadow_1_2"/>
<feBlend mode="normal" in="SourceGraphic" in2="effect1_dropShadow_1_2" result="shape"/>
</filter>
<linearGradient id="paint0_linear_1_2" x1="132.548" y1="128.942" x2="135.964" y2="285.43" gradientUnits="userSpaceOnUse">
<stop stop-color="#3CFAED"/>
<stop offset="1" stop-color="#4E88D3"/>
</linearGradient>
<linearGradient id="paint1_linear_1_2" x1="154.883" y1="-16.843" x2="151.034" y2="136.717" gradientUnits="userSpaceOnUse">
<stop stop-color="#FFFF00"/>
<stop offset="1" stop-color="#FFBF03"/>
</linearGradient>
<clipPath id="clip0_1_2">
<rect width="256" height="256" fill="white" transform="translate(4)"/>
</clipPath>
</defs>
</svg>
